<svg width="367" height="124" viewBox="0 0 367 124" xmlns="http://www.w3.org/2000/svg"><mask id="satori_om-id"><rect x="0" y="0" width="367" height="124" fill="#fff"/></mask><rect x="0" y="0" width="367" height="124" fill="#F6F9FC"/><clipPath id="satori_cp-id-0"><rect x="25" y="21" width="82" height="82"/></clipPath><mask id="satori_om-id-0"><rect x="25" y="21" width="82" height="82" fill="#fff"/></mask><image x="25" y="21" width="82" height="82" href="data:image/svg+xml;utf8,%3Csvg  t=%221724990704695%22 class=%22icon%22 version=%221.1%22 xmlns=%22http://www.w3.org/2000/svg%22 p-id=%224289%22 width=%2282%22 height=%2282%22 viewBox=%220 0 1024 1024%22%3E%3Cpath d=%22M512 431.36c43.946667 0 79.786667 35.84 79.786667 80.64 0 42.666667-35.84 78.933333-79.786667 78.933333S432.213333 554.666667 432.213333 512c0-44.8 35.84-80.64 79.786667-80.64M314.453333 853.333333c26.88 16.213333 85.76-8.533333 153.6-72.533333-22.186667-25.173333-43.946667-52.48-64.426666-81.066667a968.533333 968.533333 0 0 1-102.4-15.36c-21.76 91.306667-13.653333 154.026667 13.226666 168.96m30.293334-244.906666l-12.373334-21.76c-4.693333 12.373333-9.386667 24.746667-12.373333 36.693333 11.52 2.56 24.32 4.693333 37.546667 6.826667l-12.8-21.76m279.04-32.426667l34.56-64-34.56-64c-12.8-22.613333-26.453333-42.666667-38.826667-62.72C561.92 384 537.6 384 512 384s-49.92 0-72.96 1.28c-12.373333 20.053333-26.026667 40.106667-38.826667 62.72L365.653333 512l34.56 64c12.8 22.613333 26.453333 42.666667 38.826667 62.72 23.04 1.28 47.36 1.28 72.96 1.28s49.92 0 72.96-1.28c12.373333-20.053333 26.026667-40.106667 38.826667-62.72M512 289.28c-8.106667 9.386667-16.64 19.2-25.173333 30.72h50.346666c-8.533333-11.52-17.066667-21.333333-25.173333-30.72m0 445.44c8.106667-9.386667 16.64-19.2 25.173333-30.72h-50.346666c8.533333 11.52 17.066667 21.333333 25.173333 30.72M709.12 170.666667c-26.453333-16.213333-85.333333 8.533333-153.173333 72.533333 22.186667 25.173333 43.946667 52.48 64.426666 81.066667 34.986667 3.413333 69.546667 8.533333 102.4 15.36 21.76-91.306667 13.653333-154.026667-13.653333-168.96m-29.866667 244.906666l12.373334 21.76c4.693333-12.373333 9.386667-24.746667 12.373333-36.693333-11.52-2.56-24.32-4.693333-37.546667-6.826667l12.8 21.76m61.866667-300.8c62.72 35.84 69.546667 130.133333 43.093333 240.213334 108.373333 32 186.453333 84.906667 186.453334 157.013333s-78.08 125.013333-186.453334 157.013333c26.453333 110.08 19.626667 204.373333-43.093333 240.213334-62.293333 35.84-147.2-5.12-229.12-83.2-81.92 78.08-166.826667 119.04-229.546667 83.2-62.293333-35.84-69.12-130.133333-42.666666-240.213334-108.373333-32-186.453333-84.906667-186.453334-157.013333s78.08-125.013333 186.453334-157.013333c-26.453333-110.08-19.626667-204.373333 42.666666-240.213334 62.72-35.84 147.626667 5.12 229.546667 83.2 81.92-78.08 166.826667-119.04 229.12-83.2M728.746667 512c14.506667 32 27.306667 64 37.973333 96.426667 89.6-26.88 139.946667-65.28 139.946667-96.426667s-50.346667-69.546667-139.946667-96.426667c-10.666667 32.426667-23.466667 64.426667-37.973333 96.426667M295.253333 512c-14.506667-32-27.306667-64-37.973333-96.426667-89.6 26.88-139.946667 65.28-139.946667 96.426667s50.346667 69.546667 139.946667 96.426667c10.666667-32.426667 23.466667-64.426667 37.973333-96.426667m384 96.426667l-12.8 21.76c13.226667-2.133333 26.026667-4.266667 37.546667-6.826667-2.986667-11.946667-7.68-24.32-12.373333-36.693333l-12.373334 21.76m-123.306666 172.373333c67.84 64 126.72 88.746667 153.173333 72.533333 27.306667-14.933333 35.413333-77.653333 13.653333-168.96-32.853333 6.826667-67.413333 11.946667-102.4 15.36-20.48 28.586667-42.24 55.893333-64.426666 81.066667M344.746667 415.573333l12.8-21.76c-13.226667 2.133333-26.026667 4.266667-37.546667 6.826667 2.986667 11.946667 7.68 24.32 12.373333 36.693333l12.373334-21.76m123.306666-172.373333C400.213333 179.2 341.333333 154.453333 314.453333 170.666667c-26.88 14.933333-34.986667 77.653333-13.226666 168.96a968.533333 968.533333 0 0 1 102.4-15.36c20.48-28.586667 42.24-55.893333 64.426666-81.066667z%22 fill=%22%230288D1%22 p-id=%224290%22%3E%3C/path%3E%3C/svg%3E" preserveAspectRatio="none" clip-path="url(#satori_cp-id-0)" mask="url(#satori_om-id-0)"/><mask id="satori_om-id-0-0"><rect x="25" y="21" width="0" height="82" fill="#fff"/></mask><mask id="satori_om-id-1"><rect x="139" y="17" width="203" height="90" fill="#fff"/></mask><path fill="black" d="M140.3 48.7L165.5 48.7L165.5 57.3L140.3 57.3L140.3 48.7ZM157.4 89.7L146.1 89.7L146.1 45.8Q146.1 41.3 147.8 38.4Q149.5 35.5 152.6 34.0Q155.6 32.6 159.5 32.6L159.5 32.6Q162.1 32.6 164.3 33.0Q166.4 33.4 167.5 33.7L167.5 33.7L165.5 42.2Q164.8 42.0 163.8 41.8Q162.9 41.6 161.9 41.6L161.9 41.6Q159.3 41.6 158.4 42.8Q157.4 43.9 157.4 46.0L157.4 46.0L157.4 89.7ZM189.7 90.5L189.7 90.5Q183.3 90.5 178.8 87.9Q174.3 85.3 171.8 80.6Q169.4 75.9 169.4 69.4L169.4 69.4Q169.4 63.1 171.8 58.3Q174.3 53.5 178.7 50.9Q183.2 48.2 189.2 48.2L189.2 48.2Q193.3 48.2 196.8 49.5Q200.3 50.8 202.9 53.4Q205.5 56.0 207.0 59.9Q208.4 63.8 208.4 69.0L208.4 69.0L208.4 72.1L173.9 72.1L173.9 65.1L197.8 65.1Q197.8 62.6 196.7 60.7Q195.6 58.8 193.7 57.8Q191.9 56.7 189.4 56.7L189.4 56.7Q186.8 56.7 184.8 57.9Q182.8 59.1 181.7 61.0Q180.6 63.0 180.6 65.4L180.6 65.4L180.6 72.1Q180.6 75.2 181.7 77.4Q182.8 79.6 184.9 80.8Q187.0 82.0 189.8 82.0L189.8 82.0Q191.7 82.0 193.3 81.5Q194.9 80.9 196.0 79.9Q197.1 78.8 197.7 77.2L197.7 77.2L208.2 77.9Q207.4 81.7 204.9 84.5Q202.5 87.3 198.6 88.9Q194.7 90.5 189.7 90.5ZM216.5 62.8L241.3 62.8L241.3 71.8L216.5 71.8L216.5 62.8ZM268.8 69.3L261.3 77.9L261.3 64.3L263.0 64.3L276.1 48.7L289.1 48.7L271.5 69.3L268.8 69.3ZM262.3 89.7L251.0 89.7L251.0 35.1L262.3 35.1L262.3 89.7ZM289.9 89.7L276.6 89.7L264.5 71.8L272.1 63.8L289.9 89.7ZM306.0 89.7L294.6 89.7L294.6 48.7L306.0 48.7L306.0 89.7ZM300.3 43.5L300.3 43.5Q297.8 43.5 296.0 41.8Q294.2 40.1 294.2 37.7L294.2 37.7Q294.2 35.4 296.0 33.7Q297.8 32.0 300.3 32.0L300.3 32.0Q302.8 32.0 304.6 33.7Q306.4 35.4 306.4 37.7L306.4 37.7Q306.4 40.1 304.6 41.8Q302.8 43.5 300.3 43.5ZM312.1 48.7L336.8 48.7L336.8 57.3L312.1 57.3L312.1 48.7ZM317.7 78.6L317.7 38.9L329.1 38.9L329.1 77.1Q329.1 78.7 329.6 79.5Q330.0 80.4 330.9 80.7Q331.8 81.1 332.9 81.1L332.9 81.1Q333.7 81.1 334.5 80.9Q335.3 80.8 335.7 80.7L335.7 80.7L337.5 89.2Q336.7 89.4 335.1 89.8Q333.6 90.1 331.4 90.2L331.4 90.2Q327.3 90.4 324.2 89.1Q321.1 87.9 319.4 85.2Q317.7 82.6 317.7 78.6L317.7 78.6Z "/></svg>